<?xml version="1.0" encoding="UTF-8"?>
<svg id="Layer_1" data-name="Layer 1" xmlns="http://www.w3.org/2000/svg" version="1.1" viewBox="0 0 31 30">
  <defs>
    <style>
      .cls-1 {
        fill: #e10f7e;
      }

      .cls-1, .cls-2 {
        stroke-width: 0px;
      }

      .cls-2 {
        fill: #179ad7;
      }
    </style>
  </defs>
  <path class="cls-2" d="M15.5,20.1s6.1,0,7.5,0c0,0,.3,0,.3-.3v-2.4c0-.1.1-.2.2-.2s.2,0,.3,0c.3,0,.6-.1.8-.3s0,0,0,0c1.1-.1,2.1-1.3,2.7-2.4s0,0,0,0c1,.3.9-.3.9-.4s0,0,0,0c.4,0,.5-.3.6-.3s0,0,0,0c.9.3,1.2-.5,1.2-.5.5-.9-.6-.7-.8-.7s0,0,0,0c.2-.2.6-.4,1.1-.7.5-.2.3-.9.3-.9s0,0,0,0c-.5-.8-1.8.6-2,.8s0,0,0,0l.2-.5s0,0,0,0c0,0,.8-1.2.2-1.5-.6-.3-.8.3-1,.9-.2.5-.4.7-.5.8s0,0,0,0c.2-.5,0-1.3-.6-1.3s-.7.5-.5.8c.2.3,0,.5,0,.5s0,0,0,0c-.2.6-.2.9,0,1.3s0,0,0,0c-.5.2-.3.6,0,.9s0,0,0,0c-.6.9-1.3,1.4-1.8,1.6s0,0,0,0c-.1-.1-.3-.2-.5-.3-.2,0-.3,0-.5,0s-.2,0-.2-.2v-2.4c0-.3-.3-.3-.3-.3h-2.4c0,0-.2,0-.2-.2,0-.2,0-.4,0-.6s-.4-.5-.6-.6c-.7-.2-1.4.3-1.4,1,0,0,0,0,0,.1,0,0,0,.2-.2.2h-2.6"/>
  <path class="cls-1" d="M15.5,20.1v-7.8s-2.7,0-2.7,0c0,0-.2,0-.2-.2,0-.1,0-.3,0-.4-.1-.4-.4-.7-.9-.8-.7-.1-1.2.4-1.2,1.1,0,0,0,0,0,.1,0,0,0,.2-.2.2h-2.3c-.2,0-.3.2-.3.3v2.9c-1.2,1-2.3,1.1-3,1.1-.4-1.3-1.1-.5-1.1-.5-.3-1-.1-1.4-.1-1.4.2-.7-.4-.7-.4-.7-1.1.4-.8,1.3-.8,1.3l.3.7h-.2c0-.4-.6-.3-.6-.3-1.9.3-1,1.2-1,1.2-.9.6.1,1.2.1,1.2-.6.4.1.8.1.8,1.7.5,2.4-.3,2.4-.3.7.4,1,0,1.2-.4,1,0,2.1-.4,3-1v2.6c0,.2.2.3.3.3h7.3"/>
</svg>