<?xml version="1.0" encoding="UTF-8"?>
<svg id="Layer_1" data-name="Layer 1" xmlns="http://www.w3.org/2000/svg" version="1.1" viewBox="0 0 108 37">
  <defs>
    <style>
      .cls-1 {
        fill: #1f9b38;
      }

      .cls-1, .cls-2, .cls-3, .cls-4, .cls-5, .cls-6 {
        stroke-width: 0px;
      }

      .cls-2 {
        fill: none;
      }

      .cls-3 {
        fill: #5d2c81;
      }

      .cls-4 {
        fill: #e10f7e;
      }

      .cls-5 {
        fill: #f7c210;
      }

      .cls-6 {
        fill: #179ad7;
      }
    </style>
  </defs>
  <g>
    <path class="cls-4" d="M34.1.6c.5,0,.9.2,1.3.5.3.3.5.8.5,1.2,0,.5-.2.9-.5,1.3-.3.4-.8.5-1.3.5h-1.9v7.4c0,.5-.2.9-.5,1.3-.3.3-.8.5-1.3.5s-.9-.2-1.3-.5c-.3-.3-.5-.8-.5-1.3v-7.3h-2s0,0,0,0c-.5,0-.9-.2-1.3-.5-.3-.3-.5-.8-.5-1.3s.2-.9.5-1.3c.3-.4.8-.5,1.3-.6h7.5c0,0,0,0,0,0Z"/>
    <path class="cls-4" d="M41.2,6.2v7.3c0,.4,0,.7-.3,1-.3.3-.6.4-1,.4h0c-.4,0-.7-.1-1-.4-.3-.3-.4-.6-.4-1v-2.1s-2.4,0-2.4,0l.2,2.8c0,.4,0,.7-.4,1-.3.3-.6.5-1,.5h0c-.4,0-.7-.1-1-.4s-.4-.6-.4-1l-.5-7.8c0-.4,0-.7.4-1,.3-.3.6-.5,1-.5.4,0,.7,0,1,.4.3.3.5.6.5,1v2.1c.1,0,2.7,0,2.7,0v-2.4c0-.4.1-.7.4-1,.3-.3.6-.4,1-.4s.7.1,1,.4c.3.3.4.6.4,1Z"/>
    <path class="cls-4" d="M47.6,9.1c.4,0,.7,0,1,.3.3.3.5.6.5,1,0,.3,0,.5-.1.7-.1.2-.3.4-.5.6-.2.1-.4.2-.7.3-1.1,0-2,.1-2.7.1s-1.6,0-2-.3-.6-.6-.8-1.2c-.2-.6-.3-1.3-.3-2,0-.7,0-1.5,0-2.2,0-.7,0-1.3.2-1.8,0-.5,0-.7.1-.8,0-.1,0-.2.1-.3,0,0,.1-.2.2-.3.1-.1.2-.2.4-.3.1,0,.3-.2.6-.3.3-.1.5-.2.9-.2.3,0,.7-.1,1.2-.1.5,0,1,0,1.6,0,.4,0,.7.2,1,.4.3.3.4.6.4,1,0,.2,0,.4-.1.6,0,.2-.2.3-.3.4-.1.1-.3.2-.5.3-.2,0-.4.1-.6.1-.9,0-1.7,0-2.3.1,0,.1,0,.3,0,.5h2.7c.4,0,.7.1,1,.4.3.3.4.6.4,1s-.1.7-.4,1c-.3.3-.6.4-1,.4h-2.7c0,.3,0,.5,0,.7.7,0,1.6,0,2.6-.1Z"/>
    <path class="cls-6" d="M61.6,6.4l-4.1,2,4,1.8c.4.2.6.4.7.8.1.4.1.7,0,1.1-.1.3-.3.5-.5.6-.2.2-.5.2-.8.2s-.4,0-.6-.1l-3.6-1.6v.9c0,.4,0,.7-.3,1-.3.3-.6.4-1,.5h0c-.4,0-.7-.1-1-.4-.3-.3-.4-.6-.4-1v-2.3c0,0-.3-.1-.3-.1-.1,0-.2-.1-.3-.2-.1,0-.2-.2-.3-.3,0-.1-.1-.2-.2-.4,0-.1,0-.3,0-.4,0-.3,0-.5.2-.8.1-.2.3-.4.6-.5h.1c0,0-.1-2.7-.1-2.7,0-.4.1-.7.4-1,.3-.3.6-.4,1-.5.4,0,.7.1,1,.4.3.3.4.6.4,1v1.4c0,0,4-1.9,4-1.9.4-.2.7-.2,1.1,0,.4.1.6.4.8.7.2.4.2.7,0,1.1-.1.4-.4.6-.7.8Z"/>
    <path class="cls-6" d="M65,5.8c.5,0,1,.2,1.3.6.4.4.5.8.5,1.4v6c-.1.5-.3,1-.7,1.3-.4.4-.8.5-1.3.5h0c-.5,0-1-.2-1.3-.6-.4-.4-.5-.8-.5-1.3v-6c.1-.5.3-1,.7-1.3.4-.4.8-.5,1.4-.5ZM63.7,4.2c-.3-.5-.3-.9-.2-1.4.1-.5.4-.9.9-1.1h.2c.5-.4.9-.4,1.4-.3.5.1.9.4,1.1.9.3.5.3.9.2,1.4-.1.5-.4.9-.9,1.2h-.2c-.3.3-.6.4-.9.4s-.6,0-.9-.3c-.3-.2-.5-.4-.7-.7Z"/>
    <path class="cls-6" d="M75,10c0,.6,0,1.1-.3,1.7-.2.6-.6,1.1-1.1,1.6-.5.5-1.1,1-2,1.4-.8.4-1.8.7-2.9.8h0s0,0,0,0h0c0,0-.1,0-.2,0h0c-.1,0-.3,0-.5,0h0s0,0,0,0c-.1,0-.3-.1-.4-.2,0,0,0,0,0,0-.1,0-.2-.2-.3-.3,0,0,0,0,0,0,0-.1-.1-.3-.1-.4,0,0,0,0,0,0h0c0-.1,0-.1,0-.2,0,0,0,0,0,0v-6.7s0,0,0,0h0s0-.2,0-.2c0,0,0,0,0-.1,0,0,0-.1,0-.1,0,0,0,0,0-.1,0,0,0-.1,0-.1,0,0,0,0,0-.1,0,0,0,0,0,0,0,0,0,0,0,0,0,0,0,0,.1,0,0,0,0,0,0,0,0,0,0,0,0,0,0,0,0,0,0,0,0,0,.1,0,.1,0,0,0,0,0,.1,0,0,0,.1,0,.1,0h.1c0,0,.1,0,.1,0h0c.9,0,1.7,0,2.4.2.7.2,1.3.4,1.8.6.5.3.9.6,1.2.9.3.4.6.7.7,1.1.2.4.3.8.3,1.2ZM70,12.3c.7-.3,1.3-.6,1.6-1,.4-.4.6-.7.5-1.1,0-.3-.2-.6-.6-.8-.4-.2-.9-.4-1.6-.5v3.4Z"/>
    <path class="cls-6" d="M79.8,7.4c.2.1.4.2.5.3.1,0,.3.2.5.3.2.1.4.3.5.4.1.1.3.3.5.4.2.2.4.3.5.5.1.2.3.3.4.5.1.2.3.4.3.6,0,.2.1.5.2.7,0,.3,0,.5,0,.8,0,.3,0,.6,0,.9,0,.4-.2.8-.5,1.2-.3.4-.6.7-1,1-.8.5-1.9.8-3.1.8s-1.7-.1-2.7-.4c-.5-.1-.9-.4-1.1-.9-.3-.4-.3-.9-.2-1.4.1-.5.4-.9.9-1.1.4-.3.9-.3,1.4-.2,1.2.3,2.1.4,2.7,0,0-.1-.2-.3-.4-.5-.2-.2-.6-.4-1.2-.8-.4-.2-.6-.4-.8-.5-.2-.1-.5-.3-.8-.6-.4-.3-.6-.5-.8-.8-.2-.2-.4-.5-.6-.9-.2-.4-.3-.7-.4-1.1,0-.5-.1-.9,0-1.3,0-.4.2-.9.4-1.3.2-.4.5-.8.9-1.1.2-.2.5-.4.8-.5.3-.2.7-.3,1.1-.4.4-.1,1-.2,1.6-.1.6,0,1.3.2,2,.4.3.1.6.3.8.5.2.3.4.5.4.8,0,.3,0,.6,0,1-.1.3-.3.6-.5.8-.3.2-.5.4-.8.4-.3,0-.6,0-1,0-.8-.3-1.4-.3-1.7,0,0,0-.1.1-.1.2,0,.2.2.4.5.6.3.2.7.5,1.3.8Z"/>
  </g>
  <g>
    <path class="cls-1" d="M53.6,24.8c.7-.2,1.3-.5,1.6-.7-.4-.2-.9-.3-1.6-.3v1.1Z"/>
    <polygon class="cls-2" points="46.3 28.4 46.3 33.7 46.3 28.4 46.3 28.4"/>
    <path class="cls-6" d="M92.8,33.1v-4.7c0-.2.2-.4.4-.3s.3,0,.5,0c.6,0,1.2-.3,1.6-.7s0,0,0,0c2.2-.2,4.1-2.5,5.5-4.8s0,0,0,0c1.9.6,1.7-.6,1.7-.7s0,0,0,0c.8,0,1.1-.5,1.1-.6s0,0,0,0c1.7.6,2.3-.9,2.3-.9,1-1.8-1.3-1.4-1.6-1.4s0,0,0,0c.4-.4,1.1-.8,2.1-1.3,1-.5.5-1.7.5-1.7s0,0,0,0c-.9-1.5-3.5,1.2-3.9,1.6s0,0,0,0l.5-.9s0,0,0,0c0,0,1.7-2.4.5-3-1.2-.6-1.6.6-2,1.8-.3,1-.8,1.5-.9,1.6s0,0,0,0c.4-1,.2-2.6-1.3-2.6s-1.4,1-1,1.6c.4.6.1,1,.1,1s0,0,0,0c-.4,1.2-.3,1.9,0,2.7s0,0,0,0c-1,.4-.7,1.1,0,1.8s0,0,0,0c-1.2,1.9-2.5,2.7-3.5,3.1s0,0,0,0c-.3-.3-.7-.5-1.1-.5-.3,0-.6,0-.9,0s-.4-.1-.4-.3v-4.7c0-.7-.6-.7-.6-.7h-4.7c-.2,0-.3-.2-.3-.4,0-.4,0-.8-.2-1.1s-.7-.9-1.3-1.1c-1.5-.4-2.8.6-2.8,2,0,0,0,.2,0,.2,0,.2-.1.4-.3.4h-5.3s0,0,0,0v5.4c0,.2.2.4.4.3s.5,0,.8,0c1,.1,1.8,1,1.9,2s-.9,2.3-2.1,2.3c-.2,0-.4,0-.5,0s-.4.1-.4.3v5.4s0,0,0,0c0,0,12.1,0,14.9,0,0,0,.6-.1.6-.6ZM89.6,26.7c-.2.6-.6,1.1-1.1,1.6-.5.5-1.1,1-2,1.4-.8.4-1.8.7-2.9.8h0s0,0,0,0h0c0,0-.1,0-.2,0h0c-.1,0-.3,0-.5,0h0s0,0,0,0c-.1,0-.3-.1-.4-.2,0,0,0,0,0,0s0,0,0,0c-.1,0-.2-.2-.3-.3,0,0,0,0,0,0,0-.1-.1-.3-.1-.4,0,0,0,0,0,0h0c0-.1,0-.1,0-.2,0,0,0,0,0,0v-6.7s0,0,0,0h0s0-.2,0-.2c0,0,0,0,0,0,0,0,0,0,0-.1,0,0,0-.1,0-.1,0,0,0,0,0-.1,0,0,0-.1,0-.1s0,0,0,0c0,0,0,0,0-.1,0,0,0,0,0,0,0,0,0,0,0,0,0,0,0,0,.1,0,0,0,0,0,0,0,0,0,0,0,0,0,0,0,0,0,0,0,0,0,0,0,.1,0s0,0,0,0c0,0,0,0,.1,0,0,0,.1,0,.1,0s0,0,0,0h.1c0,0,.1,0,.1,0h0c.9,0,1.7,0,2.4.2.7.2,1.3.4,1.8.6.5.3.9.6,1.2.9.3.4.6.7.7,1.1.2.4.3.8.3,1.2,0,.6,0,1.1-.3,1.7Z"/>
    <path class="cls-6" d="M86.5,24.4c-.4-.2-.9-.4-1.6-.5v3.4c.7-.3,1.3-.6,1.6-1,.4-.4.6-.7.5-1.1,0-.3-.2-.6-.6-.8Z"/>
    <path class="cls-5" d="M61.8,33.7h5.3c.2,0,.3.2.3.4,0,.3,0,.6,0,.8.2.8.9,1.4,1.7,1.5,1.3.2,2.5-.8,2.5-2.1,0,0,0-.2,0-.2,0-.2.1-.4.3-.4h5.3s0,0,0,0v-5.4c0-.2.2-.4.4-.3s.4,0,.5,0c1.3,0,2.3-1.1,2.2-2.4,0-.9-.9-1.7-1.8-1.9-.3,0-.6,0-.9,0-.2,0-.4,0-.4-.3v-4s0,0,0,0v-1.4s-15.5,0-15.5,0v15.5ZM67.3,21.9c0-.2.2-.3.3-.5.1-.1.3-.2.4-.3.2,0,.4-.1.6-.1.4,0,.7.1,1,.4.3.3.4.6.4,1v5.9s2-.1,2-.1c.3,0,.5,0,.7.1.2.1.4.3.5.5.1.2.2.4.2.7,0,.4,0,.7-.4,1-.3.3-.6.5-1,.5l-3.5.2h0c-.4,0-.7-.1-1-.4-.3-.3-.5-.6-.5-1v-7.4c0-.2,0-.4,0-.6Z"/>
    <path class="cls-1" d="M61.8,23.5v-5.3s-5.3,0-5.3,0c-.2,0-.3-.2-.3-.4,0-.2,0-.5,0-.7-.3-1-1.2-1.6-2.1-1.6-1.1,0-2,1-2,2.1,0,0,0,.1,0,.2,0,.2-.1.4-.3.4h-5.3s0,15.5,0,15.5h15.5s0-5.3,0-5.3v-4.9ZM57.9,30.8c-.3.4-.7.6-1.1.6s-.6,0-.9-.3l-2.4-1.8v.7c0,.4-.1.7-.4,1-.3.3-.6.4-1,.4s-.7-.1-1-.4c-.3-.3-.4-.6-.4-1v-7.5s0,0,0,0c0,0,0-.1,0-.2,0,0,0,0,0-.1,0,0,0,0,0-.1,0,0,0,0,0-.1,0,0,0,0,0-.1,0,0,0,0,0-.1,0,0,0,0,0-.1s0,0,0,0c0,0,0,0,.1,0,0,0,0,0,.1,0,0,0,0,0,.1,0,0,0,0,0,.1,0,0,0,0,0,.1,0,0,0,.1,0,.2,0,0,0,0,0,0,0,1.7-.2,3.1,0,4.2.5,1.2.5,1.8,1.2,2,2.2,0,.1,0,.3,0,.4,0,.2,0,.4,0,.5,0,.2-.1.4-.2.6-.1.2-.3.4-.5.6-.2.2-.4.4-.8.6-.3.2-.7.4-1.1.6l2.1,1.6c.3.2.5.5.5.9,0,.4,0,.7-.3,1.1Z"/>
    <path class="cls-1" d="M62.2,28.1c0,0,.1,0,.2,0,1.1,0,2.1-.9,2.1-2,0-1-.6-1.9-1.6-2.1-.3,0-.5,0-.7,0-.2,0-.4-.1-.4-.3v-5.3s0,15.5,0,15.5v-5.3c0-.2.2-.3.4-.3Z"/>
    <path class="cls-3" d="M40.4,23.9c-.1,0-.2,0-.4,0-.3,0-.5,0-.8.2-.2.1-.4.3-.6.5-.2.2-.3.5-.4.8-.1.5,0,.9.2,1.4.2.4.6.7,1,.8.4.1.9,0,1.3-.2.4-.3.7-.7.8-1.2.1-.5,0-.9-.2-1.4-.2-.4-.6-.7-1-.8Z"/>
    <path class="cls-3" d="M44.4,26.8c-.3,1.1-.8,1.9-1.7,2.6-.9.7-1.8,1-2.8,1s-.7,0-1.1-.1c-.8-.2-1.5-.6-2.1-1.2s-1-1.3-1.2-2.1c-.2-.8-.2-1.6,0-2.4.2-.8.6-1.5,1.2-2.1.6-.6,1.3-1,2-1.3.8-.2,1.6-.3,2.4,0,0,0,0,0,0,0s0,0,0,0c.8.2,1.5.6,2,1.2.6.6,1,1.3,1.2,2.1.2.8.2,1.6,0,2.4ZM30.8,18.6v4.9c0,.2.2.3.4.3.3,0,.6,0,.8,0,.8.2,1.4.9,1.5,1.7.2,1.3-.8,2.5-2.1,2.5,0,0-.2,0-.2,0-.2,0-.4.1-.4.3v4.9s0,.5,0,.5h.6s4.6,0,4.6,0c.2,0,.3.2.3.4,0,.2,0,.5,0,.7.2.9,1.2,1.6,2.1,1.6,1.1,0,2-1,2-2.1,0,0,0-.1,0-.2,0-.2.1-.4.3-.4h5.3s0-5.3,0-5.3h0s0-4.9,0-4.9h0s0-5.3,0-5.3h-5.3s-4.9,0-4.9,0h-4.6s-.6,0-.6,0v.4"/>
    <path class="cls-3" d="M46.7,28c0,0,.2,0,.2,0,1.3,0,2.3-1.1,2.1-2.5-.1-.8-.7-1.5-1.5-1.7-.3,0-.6-.1-.8,0-.2,0-.4-.1-.4-.3v4.9c0-.2.2-.3.4-.3Z"/>
    <path class="cls-4" d="M30.8,18.6v-.5s-5.3,0-5.3,0c-.2,0-.3-.2-.3-.4,0-.3,0-.6,0-.8-.2-.8-.9-1.4-1.7-1.5-1.3-.2-2.5.8-2.5,2.1,0,0,0,.2,0,.2,0,.2-.1.4-.3.4h-4.6c-.4,0-.7.3-.7.7v5.7c-2.5,2-4.6,2.2-5.9,2.1-.8-2.7-2.2-.9-2.2-.9-.6-2.1-.3-2.9-.3-2.9.3-1.3-.8-1.3-.8-1.3-2.2.9-1.5,2.6-1.5,2.6l.6,1.4h-.4c0-.8-1.1-.7-1.1-.7-3.8.6-2,2.3-2,2.3-1.9,1.1.2,2.3.2,2.3-1.2.8.3,1.6.3,1.6,3.3,1.1,4.8-.7,4.8-.7,1.4.8,2.1,0,2.4-.8,2,.2,4.2-.9,5.9-1.9v5.2c0,.4.3.7.7.7h4.6c.2,0,.3.2.3.4,0,.2,0,.5,0,.7.2.9,1.2,1.6,2.1,1.6,1.1,0,2-1,2-2.1,0,0,0-.1,0-.2,0-.2.1-.4.3-.4h5.3s0-.5,0-.5c0,0,0-.1,0-.2v-14.1c0,0,0-.2,0-.2ZM29.1,22.4l-1.9,7.2c0,.3-.2.5-.5.7-.2.2-.5.3-.8.3-.3,0-.6,0-.8-.2-.3-.1-.5-.3-.6-.6l-1.2-2.4-.9,2.4c-.1.3-.3.5-.5.7-.2.2-.5.3-.8.3h0c-.3,0-.6-.1-.8-.3-.2-.2-.4-.4-.5-.7l-2.1-7.5c-.1-.4,0-.7.1-1.1.2-.3.5-.6.9-.7s.7,0,1.1.1c.3.2.6.5.7.9l.9,3.2.5-1.3c0-.3.3-.5.5-.7s.5-.3.8-.3c.3,0,.6,0,.8.2.2.1.4.3.6.6l1,2,.9-3.5c.1-.4.3-.7.7-.9.3-.2.7-.3,1.1-.2.4.1.7.3.9.7.2.3.3.7.2,1.1Z"/>
    <path class="cls-4" d="M31.2,28c0,0,.2,0,.2,0,1.3,0,2.3-1.1,2.1-2.5-.1-.8-.7-1.5-1.5-1.7-.3,0-.6-.1-.8,0-.2,0-.4-.1-.4-.3v-4.9c0,0,0,.1,0,.2v14.1c0,0,0,.2,0,.2v-4.9c0-.2.2-.3.4-.3Z"/>
  </g>
</svg>