<?xml version="1.0" encoding="UTF-8"?>
<svg xmlns="http://www.w3.org/2000/svg" xmlns:xlink="http://www.w3.org/1999/xlink" width="24px" height="24px" viewBox="0 0 24 24" version="1.1">
<g id="surface1">
<path style=" stroke:none;fill-rule:nonzero;fill:rgb(100%,100%,100%);fill-opacity:1;" d="M 12.5 16.398438 L 13.199219 15.5 C 13.5 15.101562 13.898438 14.898438 14.300781 14.898438 C 14.699219 14.898438 15.199219 14.898438 15.5 15.300781 L 19.101562 18.300781 C 19.800781 18.898438 19.898438 19.898438 19.300781 20.601562 L 17.800781 22.398438 C 16.898438 23.398438 15.5 23.800781 14.199219 23.300781 C 7.898438 20.800781 3.398438 16.199219 0.699219 9.5 C 0.199219 8.300781 0.699219 6.898438 1.601562 6 L 3.398438 4.5 C 3.699219 4.199219 4.199219 4.101562 4.601562 4.101562 C 5 4.101562 5.398438 4.398438 5.699219 4.699219 L 8.699219 8.398438 C 9 8.699219 9.101562 9.199219 9 9.601562 C 9 10 8.699219 10.398438 8.398438 10.699219 L 7.5 11.398438 C 6.800781 11.898438 6.601562 12.800781 7.101562 13.5 C 8.101562 14.898438 10.800781 18.398438 12.5 16.300781 Z M 21.5 2.300781 C 16.300781 -2.699219 8.300781 3.398438 11.699219 9.699219 L 11.398438 12.398438 L 14.101562 12.101562 C 20.300781 15.5 26.5 7.5 21.5 2.300781 Z M 14.800781 7.5 C 14.398438 7.5 14 7.101562 14 6.699219 C 14 6.300781 14.398438 5.898438 14.800781 5.898438 C 15.199219 5.898438 15.601562 6.300781 15.601562 6.699219 C 15.601562 7.101562 15.199219 7.5 14.800781 7.5 Z M 17.101562 7.5 C 16.699219 7.5 16.300781 7.101562 16.300781 6.699219 C 16.300781 6.300781 16.699219 5.898438 17.101562 5.898438 C 17.5 5.898438 17.898438 6.300781 17.898438 6.699219 C 17.898438 7.101562 17.5 7.5 17.101562 7.5 Z M 19.5 7.5 C 19.101562 7.5 18.699219 7.101562 18.699219 6.699219 C 18.699219 6.300781 19.101562 5.898438 19.5 5.898438 C 19.898438 5.898438 20.300781 6.300781 20.300781 6.699219 C 20.300781 7.101562 19.898438 7.5 19.5 7.5 Z M 19.5 7.5 "/>
</g>
</svg>
